<?xml version="1.0" encoding="UTF-8" standalone="no"?>
<!DOCTYPE svg PUBLIC "-//W3C//DTD SVG 1.1//EN"
 "http://www.w3.org/Graphics/SVG/1.1/DTD/svg11.dtd">
<!-- Generated by graphviz version 2.47.3 (20210619.1520)
 -->
<!-- Pages: 1 -->
<svg width="159pt" height="332pt"
 viewBox="0.00 0.00 158.79 332.00" xmlns="http://www.w3.org/2000/svg" xmlns:xlink="http://www.w3.org/1999/xlink">
<g id="graph0" class="graph" transform="scale(1 1) rotate(0) translate(4 328)">
<polygon fill="white" stroke="transparent" points="-4,4 -4,-328 154.79,-328 154.79,4 -4,4"/>
<!-- UICollectionView -->
<g id="node1" class="node">
<title>UICollectionView</title>
<ellipse fill="none" stroke="black" cx="75.39" cy="-306" rx="75.29" ry="18"/>
<text text-anchor="middle" x="75.39" y="-302.3" font-family="Times,serif" font-size="14.00">UICollectionView</text>
</g>
<!-- UIScrollView -->
<g id="node2" class="node">
<title>UIScrollView</title>
<ellipse fill="none" stroke="black" cx="75.39" cy="-234" rx="59.59" ry="18"/>
<text text-anchor="middle" x="75.39" y="-230.3" font-family="Times,serif" font-size="14.00">UIScrollView</text>
</g>
<!-- UICollectionView&#45;&gt;UIScrollView -->
<g id="edge1" class="edge">
<title>UICollectionView&#45;&gt;UIScrollView</title>
<path fill="none" stroke="black" d="M75.39,-287.7C75.39,-279.98 75.39,-270.71 75.39,-262.11"/>
<polygon fill="black" stroke="black" points="78.89,-262.1 75.39,-252.1 71.89,-262.1 78.89,-262.1"/>
</g>
<!-- UIView -->
<g id="node3" class="node">
<title>UIView</title>
<ellipse fill="none" stroke="black" cx="75.39" cy="-162" rx="38.99" ry="18"/>
<text text-anchor="middle" x="75.39" y="-158.3" font-family="Times,serif" font-size="14.00">UIView</text>
</g>
<!-- UIScrollView&#45;&gt;UIView -->
<g id="edge2" class="edge">
<title>UIScrollView&#45;&gt;UIView</title>
<path fill="none" stroke="black" d="M75.39,-215.7C75.39,-207.98 75.39,-198.71 75.39,-190.11"/>
<polygon fill="black" stroke="black" points="78.89,-190.1 75.39,-180.1 71.89,-190.1 78.89,-190.1"/>
</g>
<!-- UIResponder -->
<g id="node4" class="node">
<title>UIResponder</title>
<ellipse fill="none" stroke="black" cx="75.39" cy="-90" rx="57.69" ry="18"/>
<text text-anchor="middle" x="75.39" y="-86.3" font-family="Times,serif" font-size="14.00">UIResponder</text>
</g>
<!-- UIView&#45;&gt;UIResponder -->
<g id="edge3" class="edge">
<title>UIView&#45;&gt;UIResponder</title>
<path fill="none" stroke="black" d="M75.39,-143.7C75.39,-135.98 75.39,-126.71 75.39,-118.11"/>
<polygon fill="black" stroke="black" points="78.89,-118.1 75.39,-108.1 71.89,-118.1 78.89,-118.1"/>
</g>
<!-- NSObject -->
<g id="node5" class="node">
<title>NSObject</title>
<ellipse fill="none" stroke="black" cx="75.39" cy="-18" rx="45.49" ry="18"/>
<text text-anchor="middle" x="75.39" y="-14.3" font-family="Times,serif" font-size="14.00">NSObject</text>
</g>
<!-- UIResponder&#45;&gt;NSObject -->
<g id="edge4" class="edge">
<title>UIResponder&#45;&gt;NSObject</title>
<path fill="none" stroke="black" d="M75.39,-71.7C75.39,-63.98 75.39,-54.71 75.39,-46.11"/>
<polygon fill="black" stroke="black" points="78.89,-46.1 75.39,-36.1 71.89,-46.1 78.89,-46.1"/>
</g>
</g>
</svg>
